<mxfile host="app.diagrams.net" modified="2023-06-08T18:39:28.149Z" agent="Mozilla/5.0 (Macintosh; Intel Mac OS X 10_15_7) AppleWebKit/537.36 (KHTML, like Gecko) Chrome/113.0.0.0 Safari/537.36" etag="JgJf1rDjScXfa4Q7tKCh" version="21.3.6" type="github">
  <diagram name="Page-1" id="xrDvpmTVkjyJN4iHKTfP">
    <mxGraphModel dx="954" dy="616" grid="1" gridSize="10" guides="1" tooltips="1" connect="1" arrows="1" fold="1" page="1" pageScale="1" pageWidth="850" pageHeight="1100" math="0" shadow="0">
      <root>
        <mxCell id="0" />
        <mxCell id="1" parent="0" />
        <mxCell id="MokkyHcWcmKtXxvcenVj-15" style="edgeStyle=orthogonalEdgeStyle;rounded=0;orthogonalLoop=1;jettySize=auto;html=1;entryX=0.5;entryY=0;entryDx=0;entryDy=0;" edge="1" parent="1" source="MokkyHcWcmKtXxvcenVj-1" target="MokkyHcWcmKtXxvcenVj-8">
          <mxGeometry relative="1" as="geometry">
            <mxPoint x="400" y="80" as="sourcePoint" />
            <Array as="points">
              <mxPoint x="400" y="140" />
              <mxPoint x="575" y="140" />
            </Array>
          </mxGeometry>
        </mxCell>
        <mxCell id="MokkyHcWcmKtXxvcenVj-39" style="edgeStyle=orthogonalEdgeStyle;rounded=0;orthogonalLoop=1;jettySize=auto;html=1;exitX=0.5;exitY=1;exitDx=0;exitDy=0;entryX=0.5;entryY=0;entryDx=0;entryDy=0;" edge="1" parent="1" source="MokkyHcWcmKtXxvcenVj-2" target="MokkyHcWcmKtXxvcenVj-35">
          <mxGeometry relative="1" as="geometry" />
        </mxCell>
        <mxCell id="MokkyHcWcmKtXxvcenVj-40" style="edgeStyle=orthogonalEdgeStyle;rounded=0;orthogonalLoop=1;jettySize=auto;html=1;exitX=0.5;exitY=1;exitDx=0;exitDy=0;entryX=0.5;entryY=0;entryDx=0;entryDy=0;" edge="1" parent="1" source="MokkyHcWcmKtXxvcenVj-2" target="MokkyHcWcmKtXxvcenVj-36">
          <mxGeometry relative="1" as="geometry" />
        </mxCell>
        <mxCell id="MokkyHcWcmKtXxvcenVj-2" value="Macroeconomic impact" style="ellipse;whiteSpace=wrap;html=1;fillColor=#d5e8d4;strokeColor=#82b366;" vertex="1" parent="1">
          <mxGeometry x="170" y="200" width="110" height="70" as="geometry" />
        </mxCell>
        <mxCell id="MokkyHcWcmKtXxvcenVj-41" style="edgeStyle=orthogonalEdgeStyle;rounded=0;orthogonalLoop=1;jettySize=auto;html=1;exitX=0.5;exitY=1;exitDx=0;exitDy=0;" edge="1" parent="1" source="MokkyHcWcmKtXxvcenVj-8" target="MokkyHcWcmKtXxvcenVj-37">
          <mxGeometry relative="1" as="geometry" />
        </mxCell>
        <mxCell id="MokkyHcWcmKtXxvcenVj-42" style="edgeStyle=orthogonalEdgeStyle;rounded=0;orthogonalLoop=1;jettySize=auto;html=1;exitX=0.5;exitY=1;exitDx=0;exitDy=0;" edge="1" parent="1" source="MokkyHcWcmKtXxvcenVj-8" target="MokkyHcWcmKtXxvcenVj-38">
          <mxGeometry relative="1" as="geometry" />
        </mxCell>
        <mxCell id="MokkyHcWcmKtXxvcenVj-8" value="Microeconomic impact" style="ellipse;whiteSpace=wrap;html=1;fillColor=#d5e8d4;strokeColor=#82b366;" vertex="1" parent="1">
          <mxGeometry x="520" y="200" width="110" height="70" as="geometry" />
        </mxCell>
        <mxCell id="MokkyHcWcmKtXxvcenVj-35" value="Aggregated reductions in cost of illness" style="rounded=0;whiteSpace=wrap;html=1;fillColor=#dae8fc;strokeColor=#6c8ebf;" vertex="1" parent="1">
          <mxGeometry x="100" y="310" width="100" height="60" as="geometry" />
        </mxCell>
        <mxCell id="MokkyHcWcmKtXxvcenVj-36" value="Aggregated benefits of approved performance" style="rounded=0;whiteSpace=wrap;html=1;fillColor=#dae8fc;strokeColor=#6c8ebf;" vertex="1" parent="1">
          <mxGeometry x="250" y="310" width="100" height="60" as="geometry" />
        </mxCell>
        <mxCell id="MokkyHcWcmKtXxvcenVj-63" style="edgeStyle=orthogonalEdgeStyle;rounded=0;orthogonalLoop=1;jettySize=auto;html=1;exitX=0.5;exitY=1;exitDx=0;exitDy=0;entryX=0.5;entryY=0;entryDx=0;entryDy=0;" edge="1" parent="1" source="MokkyHcWcmKtXxvcenVj-37" target="MokkyHcWcmKtXxvcenVj-43">
          <mxGeometry relative="1" as="geometry" />
        </mxCell>
        <mxCell id="MokkyHcWcmKtXxvcenVj-64" style="edgeStyle=orthogonalEdgeStyle;rounded=0;orthogonalLoop=1;jettySize=auto;html=1;exitX=0.5;exitY=1;exitDx=0;exitDy=0;entryX=0.5;entryY=0;entryDx=0;entryDy=0;" edge="1" parent="1" source="MokkyHcWcmKtXxvcenVj-37" target="MokkyHcWcmKtXxvcenVj-44">
          <mxGeometry relative="1" as="geometry" />
        </mxCell>
        <mxCell id="MokkyHcWcmKtXxvcenVj-37" value="Direct" style="rounded=0;whiteSpace=wrap;html=1;fillColor=#dae8fc;strokeColor=#6c8ebf;" vertex="1" parent="1">
          <mxGeometry x="420" y="310" width="100" height="60" as="geometry" />
        </mxCell>
        <mxCell id="MokkyHcWcmKtXxvcenVj-58" style="edgeStyle=orthogonalEdgeStyle;rounded=0;orthogonalLoop=1;jettySize=auto;html=1;exitX=0.5;exitY=1;exitDx=0;exitDy=0;" edge="1" parent="1" source="MokkyHcWcmKtXxvcenVj-38" target="MokkyHcWcmKtXxvcenVj-48">
          <mxGeometry relative="1" as="geometry" />
        </mxCell>
        <mxCell id="MokkyHcWcmKtXxvcenVj-59" style="edgeStyle=orthogonalEdgeStyle;rounded=0;orthogonalLoop=1;jettySize=auto;html=1;exitX=0.5;exitY=1;exitDx=0;exitDy=0;entryX=0.5;entryY=0;entryDx=0;entryDy=0;" edge="1" parent="1" source="MokkyHcWcmKtXxvcenVj-38" target="MokkyHcWcmKtXxvcenVj-49">
          <mxGeometry relative="1" as="geometry" />
        </mxCell>
        <mxCell id="MokkyHcWcmKtXxvcenVj-60" style="edgeStyle=orthogonalEdgeStyle;rounded=0;orthogonalLoop=1;jettySize=auto;html=1;exitX=0.5;exitY=1;exitDx=0;exitDy=0;entryX=0.5;entryY=0;entryDx=0;entryDy=0;" edge="1" parent="1" source="MokkyHcWcmKtXxvcenVj-38" target="MokkyHcWcmKtXxvcenVj-47">
          <mxGeometry relative="1" as="geometry" />
        </mxCell>
        <mxCell id="MokkyHcWcmKtXxvcenVj-61" style="edgeStyle=orthogonalEdgeStyle;rounded=0;orthogonalLoop=1;jettySize=auto;html=1;exitX=0.5;exitY=1;exitDx=0;exitDy=0;entryX=0.5;entryY=0;entryDx=0;entryDy=0;" edge="1" parent="1" source="MokkyHcWcmKtXxvcenVj-38" target="MokkyHcWcmKtXxvcenVj-45">
          <mxGeometry relative="1" as="geometry">
            <Array as="points">
              <mxPoint x="670" y="400" />
              <mxPoint x="660" y="400" />
            </Array>
          </mxGeometry>
        </mxCell>
        <mxCell id="MokkyHcWcmKtXxvcenVj-62" style="edgeStyle=orthogonalEdgeStyle;rounded=0;orthogonalLoop=1;jettySize=auto;html=1;exitX=0.5;exitY=1;exitDx=0;exitDy=0;entryX=0.5;entryY=0;entryDx=0;entryDy=0;" edge="1" parent="1" source="MokkyHcWcmKtXxvcenVj-38" target="MokkyHcWcmKtXxvcenVj-46">
          <mxGeometry relative="1" as="geometry">
            <Array as="points">
              <mxPoint x="670" y="400" />
              <mxPoint x="760" y="400" />
            </Array>
          </mxGeometry>
        </mxCell>
        <mxCell id="MokkyHcWcmKtXxvcenVj-38" value="Indirect" style="rounded=0;whiteSpace=wrap;html=1;fillColor=#dae8fc;strokeColor=#6c8ebf;" vertex="1" parent="1">
          <mxGeometry x="620" y="310" width="100" height="60" as="geometry" />
        </mxCell>
        <mxCell id="MokkyHcWcmKtXxvcenVj-43" value="Absenteesim" style="ellipse;whiteSpace=wrap;html=1;aspect=fixed;fillColor=#f8cecc;strokeColor=#b85450;" vertex="1" parent="1">
          <mxGeometry x="385" y="430" width="80" height="80" as="geometry" />
        </mxCell>
        <mxCell id="MokkyHcWcmKtXxvcenVj-44" value="Attrition" style="ellipse;whiteSpace=wrap;html=1;aspect=fixed;fillColor=#f8cecc;strokeColor=#b85450;" vertex="1" parent="1">
          <mxGeometry x="480" y="430" width="80" height="80" as="geometry" />
        </mxCell>
        <mxCell id="MokkyHcWcmKtXxvcenVj-45" value="Self-reported productivity" style="ellipse;whiteSpace=wrap;html=1;aspect=fixed;fillColor=#f8cecc;strokeColor=#b85450;" vertex="1" parent="1">
          <mxGeometry x="620" y="510" width="80" height="80" as="geometry" />
        </mxCell>
        <mxCell id="MokkyHcWcmKtXxvcenVj-46" value="Problem-solving and cognition" style="ellipse;whiteSpace=wrap;html=1;aspect=fixed;fillColor=#f8cecc;strokeColor=#b85450;" vertex="1" parent="1">
          <mxGeometry x="720" y="510" width="80" height="80" as="geometry" />
        </mxCell>
        <mxCell id="MokkyHcWcmKtXxvcenVj-47" value="Emotional balance and regulation" style="ellipse;whiteSpace=wrap;html=1;aspect=fixed;fillColor=#f8cecc;strokeColor=#b85450;" vertex="1" parent="1">
          <mxGeometry x="770" y="430" width="80" height="80" as="geometry" />
        </mxCell>
        <mxCell id="MokkyHcWcmKtXxvcenVj-48" value="Quality of teamwork" style="ellipse;whiteSpace=wrap;html=1;aspect=fixed;fillColor=#f8cecc;strokeColor=#b85450;" vertex="1" parent="1">
          <mxGeometry x="570" y="430" width="80" height="80" as="geometry" />
        </mxCell>
        <mxCell id="MokkyHcWcmKtXxvcenVj-49" value="Creativity" style="ellipse;whiteSpace=wrap;html=1;aspect=fixed;fillColor=#f8cecc;strokeColor=#b85450;" vertex="1" parent="1">
          <mxGeometry x="670" y="430" width="80" height="80" as="geometry" />
        </mxCell>
        <mxCell id="MokkyHcWcmKtXxvcenVj-66" style="edgeStyle=orthogonalEdgeStyle;rounded=0;orthogonalLoop=1;jettySize=auto;html=1;exitX=0;exitY=0.5;exitDx=0;exitDy=0;entryX=0.5;entryY=0;entryDx=0;entryDy=0;" edge="1" parent="1" source="MokkyHcWcmKtXxvcenVj-1" target="MokkyHcWcmKtXxvcenVj-2">
          <mxGeometry relative="1" as="geometry" />
        </mxCell>
        <mxCell id="MokkyHcWcmKtXxvcenVj-1" value="Brain health and performance" style="rounded=0;whiteSpace=wrap;html=1;fillColor=#ffe6cc;strokeColor=#d79b00;" vertex="1" parent="1">
          <mxGeometry x="335" y="110" width="130" height="60" as="geometry" />
        </mxCell>
      </root>
    </mxGraphModel>
  </diagram>
</mxfile>
